<?xml version="1.0" encoding="utf-8"?>
<!-- Generator: Adobe Illustrator 26.0.1, SVG Export Plug-In . SVG Version: 6.00 Build 0)  -->
<svg version="1.1" xmlns="http://www.w3.org/2000/svg" xmlns:xlink="http://www.w3.org/1999/xlink" x="0px" y="0px"
	 viewBox="0 0 398.94 54" style="enable-background:new 0 0 398.94 54;" xml:space="preserve">
<style type="text/css">
	.st0{fill:#3A1459;}
	.st1{fill:#D56184;}
	.st2{fill:#46217F;}
	.st3{fill:#D8527F;}
	.st4{display:none;}
	.st5{display:inline;}
	.st6{fill:#FF2C2C;}
	.st7{fill:#FFFFFF;}
	.st8{fill:#FF2B2B;}
	.st9{fill:#194396;}
</style>
<g id="Layer_1">
	<g>
		<g>
			<path class="st2" d="M52.96,20.18c2.3-2.53,3.86-4.22,3.96-4.35c-0.2,0.11-1.94,1.5-4.64,3.6c-6.2-6.31-16.33-6.59-22.87-0.54
				c-3.73,3.45-5.5,8.22-5.25,12.92c0,0-1.2,14.96-13.34,15.6l28.34-0.08c4.45,0.38,9.03-1.04,12.57-4.31
				C58.25,36.98,58.76,26.85,52.96,20.18z M35.8,32.08c-0.95,0.55-2.42,1.17-3.31,0.17c-0.38-0.43-0.57-1.04-0.63-1.59
				c-0.33-2.64,0.07-5.02,2.07-6.87c3.69-3.41,9.3-3.43,13.01-0.22c-3.24,2.52-6.74,5.23-9.61,7.46
				C36.84,31.41,36.33,31.77,35.8,32.08z M47.18,38.12c-2.01,1.86-4.34,2.17-6.95,1.55c-0.84-0.2-1.83-0.62-2.01-1.57
				c-0.28-1.45,1.13-2.98,2.01-3.94c2.44-2.68,5.42-5.96,8.19-9C51.33,29.12,50.87,34.71,47.18,38.12z"/>
			<path class="st2" d="M46.94,23.58c1.93-1.5,3.77-2.93,5.33-4.14"/>
			<path class="st2" d="M48.41,25.17c1.65-1.81,3.21-3.53,4.54-4.99"/>
		</g>
		<path class="st3" d="M56.78,21.48c0.09-0.16,2.87-5.26,1.63-6.61c-1.24-1.34-6.55,1.04-6.71,1.11l15.67-9.39L56.78,21.48z"/>
		<g>
			<path class="st3" d="M327.34,12.9c0.58,0.33,1.03,0.79,1.36,1.38c0.33,0.59,0.49,1.25,0.49,1.98c0,0.73-0.16,1.39-0.49,1.99
				c-0.33,0.59-0.78,1.06-1.36,1.39c-0.58,0.33-1.24,0.5-1.97,0.5c-0.74,0-1.41-0.17-1.99-0.5c-0.58-0.33-1.03-0.8-1.36-1.39
				c-0.33-0.59-0.49-1.26-0.49-1.99c0-0.73,0.16-1.39,0.49-1.98c0.33-0.59,0.78-1.05,1.36-1.38c0.58-0.33,1.24-0.5,1.99-0.5
				C326.11,12.39,326.76,12.56,327.34,12.9z M327.58,18.51c0.56-0.58,0.84-1.33,0.84-2.25c0-0.92-0.28-1.67-0.84-2.25
				c-0.56-0.58-1.3-0.87-2.21-0.87c-0.92,0-1.66,0.29-2.21,0.87c-0.55,0.58-0.82,1.33-0.82,2.25c0,0.92,0.27,1.67,0.82,2.25
				c0.55,0.58,1.28,0.87,2.21,0.87C326.28,19.38,327.02,19.09,327.58,18.51z M326.84,16.23c-0.16,0.21-0.38,0.36-0.65,0.44
				l1.06,1.57l-1.19,0.02l-0.91-1.51h-0.32v1.51h-0.98v-4.07h1.82c0.43,0,0.77,0.11,1.03,0.34c0.26,0.23,0.39,0.54,0.39,0.93
				C327.08,15.76,327,16.02,326.84,16.23z M324.83,15.93h0.78c0.14,0,0.26-0.04,0.35-0.11c0.09-0.08,0.14-0.18,0.14-0.32
				c0-0.14-0.05-0.24-0.14-0.31c-0.09-0.07-0.21-0.1-0.35-0.1h-0.78V15.93z"/>
		</g>
		<g>
			<path class="st2" d="M82.02,21.69v4.77h-6.47v19.66H69.6V26.46h-6.47v-4.77H82.02z"/>
			<path class="st2" d="M106.16,21.69v24.42h-5.95V36.06h-9.25v10.05h-5.95V21.69h5.95v9.57h9.25v-9.57H106.16z"/>
			<path class="st2" d="M122.9,46.11l-5.08-9.22h-1.43v9.22h-5.95V21.69h9.98c1.92,0,3.57,0.34,4.92,1.01
				c1.36,0.67,2.37,1.59,3.04,2.77c0.67,1.17,1.01,2.48,1.01,3.91c0,1.62-0.46,3.07-1.37,4.35c-0.92,1.28-2.27,2.18-4.05,2.71
				l5.64,9.67H122.9z M116.39,32.69h3.69c1.09,0,1.91-0.27,2.45-0.8c0.54-0.53,0.82-1.29,0.82-2.26c0-0.93-0.27-1.66-0.82-2.19
				c-0.55-0.53-1.36-0.8-2.45-0.8h-3.69V32.69z"/>
			<path class="st2" d="M138.97,21.69V36.3c0,1.46,0.36,2.59,1.08,3.37c0.72,0.79,1.77,1.18,3.17,1.18c1.39,0,2.46-0.39,3.2-1.18
				c0.74-0.79,1.11-1.91,1.11-3.37V21.69h5.95v14.58c0,2.18-0.46,4.02-1.39,5.53c-0.93,1.51-2.17,2.64-3.74,3.41
				c-1.57,0.77-3.31,1.15-5.24,1.15c-1.93,0-3.65-0.38-5.17-1.13c-1.52-0.75-2.72-1.89-3.6-3.41c-0.88-1.52-1.32-3.37-1.32-5.55
				V21.69H138.97z"/>
			<path class="st2" d="M161.68,45.49c-1.41-0.58-2.55-1.44-3.39-2.57c-0.85-1.14-1.29-2.5-1.34-4.1h6.33
				c0.09,0.9,0.41,1.59,0.94,2.07c0.53,0.48,1.23,0.71,2.09,0.71c0.88,0,1.58-0.2,2.09-0.61c0.51-0.41,0.77-0.97,0.77-1.69
				c0-0.6-0.2-1.1-0.61-1.5c-0.41-0.39-0.9-0.72-1.5-0.97c-0.59-0.25-1.43-0.54-2.52-0.87c-1.58-0.49-2.86-0.97-3.86-1.46
				c-1-0.49-1.86-1.21-2.57-2.16c-0.72-0.95-1.08-2.19-1.08-3.72c0-2.27,0.82-4.05,2.47-5.34c1.65-1.29,3.79-1.93,6.44-1.93
				c2.69,0,4.86,0.64,6.51,1.93c1.65,1.29,2.53,3.08,2.64,5.37h-6.44c-0.05-0.79-0.34-1.41-0.87-1.86
				c-0.53-0.45-1.22-0.68-2.05-0.68c-0.72,0-1.3,0.19-1.74,0.57c-0.44,0.38-0.66,0.93-0.66,1.65c0,0.79,0.37,1.4,1.11,1.84
				c0.74,0.44,1.9,0.92,3.48,1.43c1.58,0.53,2.86,1.04,3.84,1.53c0.99,0.49,1.84,1.19,2.56,2.12c0.72,0.93,1.08,2.12,1.08,3.58
				c0,1.39-0.35,2.66-1.06,3.79c-0.71,1.14-1.73,2.04-3.08,2.71c-1.35,0.67-2.93,1.01-4.77,1.01
				C164.7,46.36,163.1,46.07,161.68,45.49z"/>
			<path class="st2" d="M196.61,21.69v4.77h-6.47v19.66h-5.95V26.46h-6.47v-4.77H196.61z"/>
			<path class="st3" d="M225.17,35.69c0.86,1.1,1.29,2.36,1.29,3.77c0,2.04-0.71,3.66-2.14,4.85c-1.43,1.19-3.42,1.79-5.97,1.79
				h-11.38V21.69h10.99c2.48,0,4.42,0.57,5.83,1.7c1.4,1.14,2.1,2.68,2.1,4.63c0,1.44-0.38,2.63-1.13,3.58
				c-0.75,0.95-1.76,1.61-3.01,1.98C223.18,33.89,224.31,34.59,225.17,35.69z M212.93,31.57h3.9c0.97,0,1.72-0.21,2.24-0.64
				c0.52-0.43,0.78-1.06,0.78-1.9c0-0.83-0.26-1.47-0.78-1.91c-0.52-0.44-1.27-0.66-2.24-0.66h-3.9V31.57z M219.62,40.63
				c0.54-0.45,0.82-1.11,0.82-1.97c0-0.86-0.28-1.53-0.85-2.02c-0.57-0.49-1.35-0.73-2.35-0.73h-4.31v5.39h4.38
				C218.31,41.31,219.08,41.09,219.62,40.63z"/>
			<path class="st3" d="M242.36,46.11l-5.08-9.22h-1.43v9.22h-5.95V21.69h9.98c1.92,0,3.57,0.34,4.92,1.01
				c1.36,0.67,2.37,1.59,3.04,2.77c0.67,1.17,1.01,2.48,1.01,3.91c0,1.62-0.46,3.07-1.37,4.35c-0.92,1.28-2.27,2.18-4.05,2.71
				l5.64,9.67H242.36z M235.85,32.69h3.69c1.09,0,1.91-0.27,2.45-0.8c0.54-0.53,0.82-1.29,0.82-2.26c0-0.93-0.27-1.66-0.82-2.19
				c-0.55-0.53-1.36-0.8-2.45-0.8h-3.69V32.69z"/>
			<path class="st3" d="M267.79,41.8h-9.11l-1.46,4.31h-6.23l8.84-24.42h6.89l8.84,24.42h-6.3L267.79,41.8z M266.26,37.21
				l-3.03-8.94l-2.99,8.94H266.26z"/>
			<path class="st3" d="M300.07,46.11h-5.95l-9.95-15.06v15.06h-5.95V21.69h5.95l9.95,15.13V21.69h5.95V46.11z"/>
			<path class="st3" d="M320.28,23.22c1.92,1.02,3.41,2.45,4.47,4.3c1.05,1.84,1.58,3.97,1.58,6.38c0,2.39-0.53,4.51-1.58,6.37
				c-1.06,1.86-2.55,3.29-4.49,4.31c-1.94,1.02-4.18,1.53-6.73,1.53h-9.15V21.69h9.15C316.11,21.69,318.36,22.2,320.28,23.22z
				 M318.4,39.12c1.25-1.23,1.88-2.97,1.88-5.22c0-2.25-0.63-4-1.88-5.25c-1.25-1.25-3-1.88-5.25-1.88h-2.82v14.19h2.82
				C315.4,40.96,317.15,40.35,318.4,39.12z"/>
		</g>
	</g>
</g>
<g id="Layer_2">
	<g class="st4">
		<g class="st5">
			<g>
				<g>
					<path class="st6" d="M380,33.64C380,33.65,380,33.65,380,33.64v0.1c0,0.16,0,0.32,0,0.47v0.09c0,0.15-0.01,0.29-0.02,0.44
						c-0.08,1.75-0.39,3.45-0.94,5.04c-0.01,0.05-0.02,0.08-0.04,0.12c-0.05,0.14-0.09,0.27-0.14,0.4
						c-0.08,0.21-0.16,0.42-0.24,0.62c-2.75,6.64-9.29,11.33-16.92,11.33c-2.51,0-4.9-0.51-7.08-1.41
						c-0.16-0.07-0.32-0.14-0.47-0.21c-4.44-2.01-7.93-5.74-9.63-10.33c-0.01-0.01-0.01-0.01-0.01-0.01
						c-0.05-0.13-0.1-0.26-0.13-0.39c-0.01-0.04-0.03-0.08-0.04-0.12c-0.59-1.72-0.92-3.57-0.96-5.48v-0.09
						c-0.01-0.16-0.01-0.32-0.01-0.47v-0.08c0,0,0,0,0-0.01c0,0,0,0,0-0.01c0-0.05,0-0.11,0.01-0.16v-0.12
						c0-0.15,0.01-0.29,0.02-0.43c0.01-0.24,0.03-0.49,0.05-0.72v-0.03c0-0.03,0-0.07,0.01-0.11c0.02-0.24,0.05-0.47,0.08-0.71
						c0-0.05,0.01-0.09,0.02-0.13c0.02-0.19,0.05-0.38,0.08-0.57c0.05-0.25,0.09-0.49,0.14-0.73c0.05-0.24,0.1-0.47,0.17-0.71
						c0-0.03,0.01-0.06,0.02-0.08c0.05-0.16,0.09-0.32,0.14-0.48c0.04-0.14,0.08-0.27,0.12-0.4c0.08-0.28,0.18-0.56,0.27-0.82
						c0.08-0.2,0.15-0.4,0.23-0.6c0.01-0.01,0.01-0.03,0.02-0.03c0.06-0.14,0.12-0.29,0.18-0.43c1.81-4.13,5.11-7.46,9.22-9.3
						c0.09-0.05,0.18-0.09,0.27-0.13c2.23-0.97,4.69-1.5,7.27-1.5c7.23,0,13.49,4.21,16.47,10.3c0.17,0.35,0.32,0.7,0.46,1.06
						c0.01,0.01,0.02,0.02,0.02,0.03c0.08,0.2,0.16,0.4,0.23,0.6c0.22,0.59,0.41,1.2,0.56,1.82c0.03,0.11,0.06,0.23,0.08,0.34
						c0.09,0.33,0.15,0.67,0.21,1c0.02,0.11,0.03,0.23,0.06,0.34c0.03,0.17,0.05,0.34,0.07,0.52c0.03,0.2,0.05,0.4,0.07,0.61
						c0.03,0.26,0.04,0.53,0.06,0.79c0.02,0.17,0.02,0.34,0.02,0.51v0.12C380,33.54,380,33.59,380,33.64z"/>
				</g>
			</g>
			<g>
				<g>
					<polygon class="st7" points="363.24,30.48 367.56,37 360.31,34.26 367.79,32.24 362.9,38.26 					"/>
				</g>
				<g>
					<path class="st7" d="M361.35,38.19c-1.35,2.33-3.27,3.3-6.17,3.3c-4.34,0-7.85-3.51-7.85-7.84c0-4.34,3.51-7.85,7.85-7.85
						c3.27,0,5.73,1.6,6.9,4.45c-1.09-1.96-2.84-2.89-5.24-2.89c-3.53,0-6.38,2.87-6.38,6.39c0,3.53,2.85,6.39,6.38,6.39
						C358.93,40.14,360.18,39.74,361.35,38.19z"/>
				</g>
			</g>
		</g>
	</g>
	<g>
		<g>
			<path class="st8" d="M380,33.66v0.09c0,0.16,0,0.31,0,0.47v0.09c0,0.15-0.01,0.29-0.02,0.44c-0.08,1.76-0.39,3.45-0.94,5.05
				l-0.01,0.02c-0.01,0.03-0.02,0.06-0.03,0.11c-0.04,0.14-0.09,0.27-0.14,0.4c-0.07,0.21-0.15,0.42-0.24,0.62
				c-1.76,4.28-5.11,7.75-9.3,9.66c-2.11,0.97-4.44,1.55-6.89,1.65c-0.24,0.01-0.49,0.02-0.73,0.02c-2.51,0-4.9-0.5-7.08-1.41
				c-0.15-0.07-0.32-0.14-0.47-0.21c-0.08-0.03-0.15-0.07-0.23-0.11c-4.33-2.03-7.72-5.71-9.39-10.22c0,0,0,0,0-0.01
				c-0.05-0.13-0.09-0.26-0.14-0.39c-0.01-0.04-0.02-0.07-0.03-0.11l-0.01-0.02c-0.58-1.72-0.92-3.57-0.95-5.49v-0.09
				c0-0.16,0-0.31,0-0.47v-0.08c0,0,0,0,0-0.01c0-0.05,0-0.11,0-0.17v-0.13c0-0.14,0.01-0.29,0.01-0.44
				c0.01-0.24,0.03-0.48,0.05-0.71v-0.04c0-0.03,0-0.07,0.01-0.1c0.03-0.24,0.05-0.48,0.08-0.72c0-0.05,0.01-0.09,0.02-0.13
				c0.02-0.19,0.06-0.38,0.09-0.57c0.04-0.24,0.08-0.49,0.14-0.73c0.05-0.24,0.11-0.47,0.17-0.71c0.01-0.03,0.02-0.06,0.02-0.08
				c0.05-0.17,0.09-0.32,0.14-0.48c0.04-0.14,0.08-0.27,0.12-0.4c0.09-0.28,0.18-0.56,0.28-0.82c0.05-0.11,0.09-0.22,0.13-0.33
				c0.03-0.09,0.07-0.18,0.11-0.27c0-0.01,0.01-0.03,0.02-0.03c0.06-0.15,0.12-0.29,0.18-0.43c1.78-4.05,4.99-7.33,8.98-9.19
				c0.08-0.04,0.16-0.08,0.23-0.11c0.09-0.05,0.19-0.09,0.28-0.13c2.22-0.97,4.68-1.5,7.26-1.5c0.24,0,0.49,0.01,0.73,0.02
				c2.45,0.09,4.78,0.67,6.89,1.64c3.86,1.77,6.99,4.84,8.85,8.64c0.16,0.35,0.32,0.7,0.46,1.06c0.01,0.01,0.02,0.02,0.02,0.03
				c0.04,0.09,0.07,0.18,0.11,0.27c0.04,0.11,0.08,0.21,0.12,0.33c0.22,0.59,0.41,1.2,0.56,1.82c0.03,0.11,0.06,0.23,0.08,0.34
				c0.08,0.33,0.15,0.67,0.21,1.01c0.02,0.11,0.04,0.23,0.06,0.34c0.03,0.17,0.05,0.35,0.08,0.52c0.03,0.2,0.04,0.4,0.07,0.6
				c0.02,0.26,0.04,0.53,0.05,0.79c0.01,0.17,0.02,0.34,0.03,0.51v0.13C380,33.55,380,33.6,380,33.66z"/>
		</g>
		<g>
			<path class="st9" d="M380,33.75c0,0.16,0,0.31,0,0.47v0.09c0,0.15-0.01,0.29-0.02,0.44c-0.08,1.76-0.39,3.45-0.94,5.05
				l-0.01,0.02c-0.01,0.03-0.02,0.06-0.03,0.11c-0.04,0.14-0.09,0.27-0.14,0.4c-0.07,0.21-0.15,0.42-0.24,0.62
				c-1.76,4.28-5.11,7.75-9.3,9.66c-2.11,0.97-4.44,1.55-6.89,1.65c-0.24,0.01-0.49,0.02-0.73,0.02c-2.51,0-4.9-0.5-7.08-1.41
				c-0.15-0.07-0.32-0.14-0.47-0.21c-0.08-0.03-0.15-0.07-0.23-0.11c-4.33-2.03-7.72-5.71-9.39-10.22c0,0,0,0,0-0.01
				c-0.05-0.13-0.09-0.26-0.14-0.39c-0.01-0.04-0.02-0.07-0.03-0.11l-0.01-0.02c-0.58-1.72-0.92-3.57-0.95-5.49v-0.09
				c0-0.16,0-0.31,0-0.47H380z"/>
		</g>
		<g>
			<path class="st7" d="M380,33.66v0.09c0,0.16,0,0.31,0,0.47v0.09c0,0.15-0.01,0.29-0.02,0.44c-0.08,1.76-0.39,3.45-0.94,5.05
				l-0.01,0.02h-34.68l-0.01-0.02c-0.58-1.72-0.92-3.57-0.95-5.49v-0.09c0-0.16,0-0.31,0-0.47v-0.08c0,0,0,0,0-0.01
				c0-0.05,0-0.11,0-0.17v-0.13c0-0.14,0.01-0.29,0.01-0.44c0.01-0.24,0.03-0.48,0.05-0.71v-0.04c0-0.03,0-0.07,0.01-0.1
				c0.03-0.24,0.05-0.48,0.08-0.72c0-0.05,0.01-0.09,0.02-0.13c0.02-0.19,0.06-0.38,0.09-0.57c0.04-0.24,0.08-0.49,0.14-0.73
				c0.05-0.24,0.11-0.47,0.17-0.71c0.01-0.03,0.02-0.06,0.02-0.08c0.05-0.17,0.09-0.32,0.14-0.48c0.04-0.14,0.08-0.27,0.12-0.4
				c0.09-0.28,0.18-0.56,0.28-0.82c0.05-0.11,0.09-0.22,0.13-0.33h34.12c0.04,0.11,0.08,0.21,0.12,0.33
				c0.22,0.59,0.41,1.2,0.56,1.82c0.03,0.11,0.06,0.23,0.08,0.34c0.08,0.33,0.15,0.67,0.21,1.01c0.02,0.11,0.04,0.23,0.06,0.34
				c0.03,0.17,0.05,0.35,0.08,0.52c0.03,0.2,0.04,0.4,0.07,0.6c0.02,0.26,0.04,0.53,0.05,0.79c0.01,0.17,0.02,0.34,0.03,0.51v0.13
				C380,33.55,380,33.6,380,33.66z"/>
		</g>
	</g>
</g>
</svg>
