<?xml version="1.0" encoding="UTF-8"?>
<svg xmlns="http://www.w3.org/2000/svg" xmlns:xlink="http://www.w3.org/1999/xlink" width="340px" height="54px" viewBox="0 0 340 54" version="1.1">
<g id="surface1">
<path style=" stroke:none;fill-rule:nonzero;fill:rgb(27.45098%,12.941176%,49.803922%);fill-opacity:1;" d="M 52.960938 20.179688 C 55.261719 17.648438 56.820312 15.960938 56.921875 15.828125 C 56.71875 15.941406 54.980469 17.328125 52.28125 19.429688 C 46.078125 13.121094 35.949219 12.839844 29.410156 18.890625 C 25.679688 22.339844 23.910156 27.109375 24.160156 31.808594 C 24.160156 31.808594 22.960938 46.769531 10.820312 47.410156 L 39.160156 47.328125 C 43.609375 47.710938 48.191406 46.289062 51.730469 43.019531 C 58.25 36.980469 58.761719 26.851562 52.960938 20.179688 Z M 35.800781 32.078125 C 34.851562 32.628906 33.378906 33.25 32.488281 32.25 C 32.109375 31.820312 31.921875 31.210938 31.859375 30.660156 C 31.53125 28.019531 31.929688 25.640625 33.929688 23.789062 C 37.621094 20.378906 43.230469 20.359375 46.941406 23.570312 C 43.699219 26.089844 40.199219 28.800781 37.328125 31.03125 C 36.839844 31.410156 36.328125 31.769531 35.800781 32.078125 Z M 47.179688 38.121094 C 45.171875 39.980469 42.839844 40.289062 40.230469 39.671875 C 39.390625 39.46875 38.398438 39.050781 38.21875 38.101562 C 37.941406 36.648438 39.351562 35.121094 40.230469 34.160156 C 42.671875 31.480469 45.648438 28.199219 48.421875 25.160156 C 51.328125 29.121094 50.871094 34.710938 47.179688 38.121094 Z M 47.179688 38.121094 "/>
<path style=" stroke:none;fill-rule:nonzero;fill:rgb(27.45098%,12.941176%,49.803922%);fill-opacity:1;" d="M 46.941406 23.578125 C 48.871094 22.078125 50.710938 20.648438 52.269531 19.441406 "/>
<path style=" stroke:none;fill-rule:nonzero;fill:rgb(27.45098%,12.941176%,49.803922%);fill-opacity:1;" d="M 48.410156 25.171875 C 50.058594 23.359375 51.621094 21.640625 52.949219 20.179688 "/>
<path style=" stroke:none;fill-rule:nonzero;fill:rgb(84.705882%,32.156863%,49.803922%);fill-opacity:1;" d="M 56.78125 21.480469 C 56.871094 21.320312 59.648438 16.21875 58.410156 14.871094 C 57.171875 13.53125 51.859375 15.910156 51.699219 15.980469 L 67.371094 6.589844 Z M 56.78125 21.480469 "/>
<path style=" stroke:none;fill-rule:nonzero;fill:rgb(84.705882%,32.156863%,49.803922%);fill-opacity:1;" d="M 327.339844 12.898438 C 327.921875 13.230469 328.371094 13.691406 328.699219 14.28125 C 329.03125 14.871094 329.191406 15.53125 329.191406 16.261719 C 329.191406 16.988281 329.03125 17.648438 328.699219 18.25 C 328.371094 18.839844 327.921875 19.308594 327.339844 19.640625 C 326.761719 19.96875 326.101562 20.140625 325.371094 20.140625 C 324.628906 20.140625 323.960938 19.96875 323.378906 19.640625 C 322.800781 19.308594 322.351562 18.839844 322.019531 18.25 C 321.691406 17.660156 321.53125 16.988281 321.53125 16.261719 C 321.53125 15.53125 321.691406 14.871094 322.019531 14.28125 C 322.351562 13.691406 322.800781 13.230469 323.378906 12.898438 C 323.960938 12.570312 324.621094 12.398438 325.371094 12.398438 C 326.109375 12.390625 326.761719 12.558594 327.339844 12.898438 Z M 327.578125 18.511719 C 328.140625 17.929688 328.421875 17.179688 328.421875 16.261719 C 328.421875 15.339844 328.140625 14.589844 327.578125 14.011719 C 327.019531 13.429688 326.28125 13.140625 325.371094 13.140625 C 324.449219 13.140625 323.710938 13.429688 323.160156 14.011719 C 322.609375 14.589844 322.339844 15.339844 322.339844 16.261719 C 322.339844 17.179688 322.609375 17.929688 323.160156 18.511719 C 323.710938 19.089844 324.441406 19.378906 325.371094 19.378906 C 326.28125 19.378906 327.019531 19.089844 327.578125 18.511719 Z M 326.839844 16.230469 C 326.679688 16.441406 326.460938 16.589844 326.191406 16.671875 L 327.25 18.238281 L 326.058594 18.261719 L 325.148438 16.75 L 324.828125 16.75 L 324.828125 18.261719 L 323.851562 18.261719 L 323.851562 14.191406 L 325.671875 14.191406 C 326.101562 14.191406 326.441406 14.300781 326.699219 14.53125 C 326.960938 14.761719 327.089844 15.070312 327.089844 15.460938 C 327.078125 15.761719 327 16.019531 326.839844 16.230469 Z M 324.828125 15.929688 L 325.609375 15.929688 C 325.75 15.929688 325.871094 15.890625 325.960938 15.820312 C 326.050781 15.738281 326.101562 15.640625 326.101562 15.5 C 326.101562 15.359375 326.050781 15.261719 325.960938 15.191406 C 325.871094 15.121094 325.75 15.089844 325.609375 15.089844 L 324.828125 15.089844 Z M 324.828125 15.929688 "/>
<path style=" stroke:none;fill-rule:nonzero;fill:rgb(27.45098%,12.941176%,49.803922%);fill-opacity:1;" d="M 82.019531 21.691406 L 82.019531 26.460938 L 75.550781 26.460938 L 75.550781 46.121094 L 69.601562 46.121094 L 69.601562 26.460938 L 63.128906 26.460938 L 63.128906 21.691406 Z M 82.019531 21.691406 "/>
<path style=" stroke:none;fill-rule:nonzero;fill:rgb(27.45098%,12.941176%,49.803922%);fill-opacity:1;" d="M 106.160156 21.691406 L 106.160156 46.109375 L 100.210938 46.109375 L 100.210938 36.058594 L 90.960938 36.058594 L 90.960938 46.109375 L 85.011719 46.109375 L 85.011719 21.691406 L 90.960938 21.691406 L 90.960938 31.261719 L 100.210938 31.261719 L 100.210938 21.691406 Z M 106.160156 21.691406 "/>
<path style=" stroke:none;fill-rule:nonzero;fill:rgb(27.45098%,12.941176%,49.803922%);fill-opacity:1;" d="M 122.898438 46.109375 L 117.820312 36.890625 L 116.390625 36.890625 L 116.390625 46.109375 L 110.441406 46.109375 L 110.441406 21.691406 L 120.421875 21.691406 C 122.339844 21.691406 123.988281 22.03125 125.339844 22.699219 C 126.699219 23.371094 127.710938 24.289062 128.378906 25.46875 C 129.050781 26.640625 129.390625 27.949219 129.390625 29.378906 C 129.390625 31 128.929688 32.449219 128.019531 33.730469 C 127.101562 35.011719 125.75 35.910156 123.96875 36.441406 L 129.609375 46.109375 Z M 116.390625 32.691406 L 120.078125 32.691406 C 121.171875 32.691406 121.988281 32.421875 122.53125 31.890625 C 123.070312 31.359375 123.351562 30.601562 123.351562 29.628906 C 123.351562 28.699219 123.078125 27.96875 122.53125 27.441406 C 121.980469 26.910156 121.171875 26.640625 120.078125 26.640625 L 116.390625 26.640625 Z M 116.390625 32.691406 "/>
<path style=" stroke:none;fill-rule:nonzero;fill:rgb(27.45098%,12.941176%,49.803922%);fill-opacity:1;" d="M 138.96875 21.691406 L 138.96875 36.300781 C 138.96875 37.761719 139.328125 38.890625 140.050781 39.671875 C 140.769531 40.460938 141.820312 40.851562 143.21875 40.851562 C 144.609375 40.851562 145.679688 40.460938 146.421875 39.671875 C 147.160156 38.878906 147.53125 37.761719 147.53125 36.300781 L 147.53125 21.691406 L 153.480469 21.691406 L 153.480469 36.269531 C 153.480469 38.449219 153.019531 40.289062 152.089844 41.800781 C 151.160156 43.308594 149.921875 44.441406 148.351562 45.210938 C 146.78125 45.980469 145.039062 46.359375 143.109375 46.359375 C 141.179688 46.359375 139.460938 45.980469 137.941406 45.230469 C 136.421875 44.480469 135.21875 43.339844 134.339844 41.820312 C 133.460938 40.300781 133.019531 38.449219 133.019531 36.269531 L 133.019531 21.691406 Z M 138.96875 21.691406 "/>
<path style=" stroke:none;fill-rule:nonzero;fill:rgb(27.45098%,12.941176%,49.803922%);fill-opacity:1;" d="M 161.679688 45.488281 C 160.269531 44.910156 159.128906 44.050781 158.289062 42.921875 C 157.441406 41.78125 157 40.421875 156.949219 38.820312 L 163.28125 38.820312 C 163.371094 39.71875 163.691406 40.410156 164.21875 40.890625 C 164.75 41.371094 165.449219 41.601562 166.308594 41.601562 C 167.191406 41.601562 167.890625 41.398438 168.398438 40.988281 C 168.910156 40.578125 169.171875 40.019531 169.171875 39.300781 C 169.171875 38.699219 168.96875 38.199219 168.558594 37.800781 C 168.148438 37.410156 167.660156 37.078125 167.058594 36.828125 C 166.46875 36.578125 165.628906 36.289062 164.539062 35.960938 C 162.960938 35.46875 161.679688 34.988281 160.679688 34.5 C 159.679688 34.011719 158.820312 33.289062 158.109375 32.339844 C 157.390625 31.390625 157.03125 30.148438 157.03125 28.621094 C 157.03125 26.351562 157.851562 24.570312 159.5 23.28125 C 161.148438 21.988281 163.289062 21.351562 165.941406 21.351562 C 168.628906 21.351562 170.800781 21.988281 172.449219 23.28125 C 174.101562 24.570312 174.980469 26.359375 175.089844 28.648438 L 168.648438 28.648438 C 168.601562 27.859375 168.308594 27.238281 167.78125 26.789062 C 167.25 26.339844 166.558594 26.109375 165.730469 26.109375 C 165.011719 26.109375 164.429688 26.300781 163.988281 26.679688 C 163.550781 27.058594 163.328125 27.609375 163.328125 28.328125 C 163.328125 29.121094 163.699219 29.730469 164.441406 30.171875 C 165.179688 30.609375 166.339844 31.089844 167.921875 31.601562 C 169.5 32.128906 170.78125 32.640625 171.761719 33.128906 C 172.75 33.621094 173.601562 34.320312 174.320312 35.25 C 175.039062 36.179688 175.398438 37.371094 175.398438 38.828125 C 175.398438 40.21875 175.050781 41.488281 174.339844 42.621094 C 173.628906 43.761719 172.609375 44.660156 171.261719 45.328125 C 169.910156 46 168.328125 46.339844 166.488281 46.339844 C 164.699219 46.359375 163.101562 46.070312 161.679688 45.488281 Z M 161.679688 45.488281 "/>
<path style=" stroke:none;fill-rule:nonzero;fill:rgb(27.45098%,12.941176%,49.803922%);fill-opacity:1;" d="M 196.609375 21.691406 L 196.609375 26.460938 L 190.140625 26.460938 L 190.140625 46.121094 L 184.191406 46.121094 L 184.191406 26.460938 L 177.71875 26.460938 L 177.71875 21.691406 Z M 196.609375 21.691406 "/>
<path style=" stroke:none;fill-rule:nonzero;fill:rgb(84.705882%,32.156863%,49.803922%);fill-opacity:1;" d="M 225.171875 35.691406 C 226.03125 36.789062 226.460938 38.050781 226.460938 39.460938 C 226.460938 41.5 225.75 43.121094 224.320312 44.308594 C 222.890625 45.5 220.898438 46.101562 218.351562 46.101562 L 206.96875 46.101562 L 206.96875 21.691406 L 217.960938 21.691406 C 220.441406 21.691406 222.378906 22.261719 223.789062 23.390625 C 225.191406 24.53125 225.890625 26.070312 225.890625 28.019531 C 225.890625 29.460938 225.511719 30.648438 224.761719 31.601562 C 224.011719 32.550781 223 33.210938 221.75 33.578125 C 223.179688 33.890625 224.308594 34.589844 225.171875 35.691406 Z M 212.929688 31.570312 L 216.828125 31.570312 C 217.800781 31.570312 218.550781 31.359375 219.070312 30.929688 C 219.589844 30.5 219.851562 29.871094 219.851562 29.03125 C 219.851562 28.199219 219.589844 27.558594 219.070312 27.121094 C 218.550781 26.679688 217.800781 26.460938 216.828125 26.460938 L 212.929688 26.460938 Z M 219.621094 40.628906 C 220.160156 40.179688 220.441406 39.519531 220.441406 38.660156 C 220.441406 37.800781 220.160156 37.128906 219.589844 36.640625 C 219.019531 36.148438 218.238281 35.910156 217.238281 35.910156 L 212.929688 35.910156 L 212.929688 41.300781 L 217.308594 41.300781 C 218.308594 41.308594 219.078125 41.089844 219.621094 40.628906 Z M 219.621094 40.628906 "/>
<path style=" stroke:none;fill-rule:nonzero;fill:rgb(84.705882%,32.156863%,49.803922%);fill-opacity:1;" d="M 242.359375 46.109375 L 237.28125 36.890625 L 235.851562 36.890625 L 235.851562 46.109375 L 229.898438 46.109375 L 229.898438 21.691406 L 239.878906 21.691406 C 241.800781 21.691406 243.449219 22.03125 244.800781 22.699219 C 246.160156 23.371094 247.171875 24.289062 247.839844 25.46875 C 248.511719 26.640625 248.851562 27.949219 248.851562 29.378906 C 248.851562 31 248.390625 32.449219 247.480469 33.730469 C 246.558594 35.011719 245.210938 35.910156 243.429688 36.441406 L 249.070312 46.109375 Z M 235.851562 32.691406 L 239.539062 32.691406 C 240.628906 32.691406 241.449219 32.421875 241.988281 31.890625 C 242.53125 31.359375 242.808594 30.601562 242.808594 29.628906 C 242.808594 28.699219 242.539062 27.96875 241.988281 27.441406 C 241.441406 26.910156 240.628906 26.640625 239.539062 26.640625 L 235.851562 26.640625 Z M 235.851562 32.691406 "/>
<path style=" stroke:none;fill-rule:nonzero;fill:rgb(84.705882%,32.156863%,49.803922%);fill-opacity:1;" d="M 267.789062 41.800781 L 258.679688 41.800781 L 257.21875 46.109375 L 250.988281 46.109375 L 259.828125 21.691406 L 266.71875 21.691406 L 275.558594 46.109375 L 269.261719 46.109375 Z M 266.261719 37.210938 L 263.230469 28.269531 L 260.238281 37.210938 Z M 266.261719 37.210938 "/>
<path style=" stroke:none;fill-rule:nonzero;fill:rgb(84.705882%,32.156863%,49.803922%);fill-opacity:1;" d="M 300.070312 46.109375 L 294.121094 46.109375 L 284.171875 31.050781 L 284.171875 46.109375 L 278.21875 46.109375 L 278.21875 21.691406 L 284.171875 21.691406 L 294.121094 36.820312 L 294.121094 21.691406 L 300.070312 21.691406 Z M 300.070312 46.109375 "/>
<path style=" stroke:none;fill-rule:nonzero;fill:rgb(84.705882%,32.156863%,49.803922%);fill-opacity:1;" d="M 320.28125 23.21875 C 322.199219 24.238281 323.691406 25.671875 324.75 27.519531 C 325.800781 29.359375 326.328125 31.488281 326.328125 33.898438 C 326.328125 36.289062 325.800781 38.410156 324.75 40.269531 C 323.691406 42.128906 322.199219 43.558594 320.261719 44.578125 C 318.320312 45.601562 316.078125 46.109375 313.53125 46.109375 L 304.378906 46.109375 L 304.378906 21.691406 L 313.53125 21.691406 C 316.109375 21.691406 318.359375 22.199219 320.28125 23.21875 Z M 318.398438 39.121094 C 319.648438 37.890625 320.28125 36.148438 320.28125 33.898438 C 320.28125 31.648438 319.648438 29.898438 318.398438 28.648438 C 317.148438 27.398438 315.398438 26.769531 313.148438 26.769531 L 310.328125 26.769531 L 310.328125 40.960938 L 313.148438 40.960938 C 315.398438 40.960938 317.148438 40.351562 318.398438 39.121094 Z M 318.398438 39.121094 "/>
</g>
</svg>
