<svg xmlns="http://www.w3.org/2000/svg" xmlns:xlink="http://www.w3.org/1999/xlink" version="1.1" id="Layer_1" x="0px" y="0px" style="enable-background:new 0 0 3000 3000;" xml:space="preserve" viewBox="33.36 1333.91 2933.29 332.17">
<polygon points="234.7,1465.61 238.23,1469.94 248.21,1462.44 264.35,1480.08 264.35,1556.67 249.53,1572.91 252.35,1575.73   264.35,1565.5 291.17,1595.73 331.17,1561.38 327.82,1558.02 318,1567.02 302.11,1550.91 302.11,1474.79 318.53,1458.02 315,1454.5   304.41,1464.55 274.06,1431.73 "/>
<polygon points="279.88,1368.44 247.41,1398.32 274.7,1425.85 306.94,1397.14 "/>
<path d="M343.17,1407.5l10.35,7.06v23.06h-14.35v22.12h14.35v98.12l-20.77,16.83l3.42,4.4l12.18-9.44l25.18,26.56l43.87-37.12  l-2.81-3.58l-9.41,8l-13.76-16.53v-87.53h21.88v-21.88h-22.24v-65.47C391.06,1372.08,366.59,1384.32,343.17,1407.5z"/>
<path d="M435.64,1407.5l10.35,7.06v23.06h-14.35v22.12H446v98.12l-20.77,16.83l3.42,4.4l12.18-9.44L466,1596.2l43.87-37.12  l-2.81-3.58l-9.41,8l-13.76-16.53v-87.53h21.88v-21.88h-22.24v-65.47C483.53,1372.08,459.06,1384.32,435.64,1407.5z"/>
<path d="M2673.76,1407.5l10.35,7.06v23.06h-14.35v22.12h14.35v98.12l-20.77,16.83l3.42,4.4l12.18-9.44l25.18,26.56l43.87-37.12  l-2.81-3.58l-9.41,8l-13.76-16.53v-87.53h21.88v-21.88h-22.24v-65.47C2721.64,1372.08,2697.17,1384.32,2673.76,1407.5z"/>
<path d="M2765.23,1407.5l10.35,7.06v23.06h-14.35v22.12h14.35v98.12l-20.77,16.83l3.42,4.4l12.18-9.44l25.18,26.56l43.87-37.12  l-2.81-3.58l-9.41,8l-13.76-16.53v-87.53h21.88v-21.88h-22.24v-65.47C2813.11,1372.08,2788.64,1384.32,2765.23,1407.5z"/>
<path d="M606.23,1484.14l13.88-13.24c2.09-1.99,3.76-4.38,4.91-7.03c3.23-7.45,8.56-23.35,3.57-38.49c0,0-5.42,19.52-20.71,17.64  c-13.65-1.17-20.47-13.64-20.47-13.64s-34.82,29.88-63.06,35.05v46.83l22.35,20.23c0,0-24,12.47-30.35,36  c-2.82,14.36,2.12,29.65,23.29,39.06c-5.41-13.17-2.82-19.06,2.12-22.59c4.94-3.53,12.71-1.41,17.18,3.06  c4.47,4.47,9.18,9.18,9.18,9.18l63.76-36.94v-54.83L606.23,1484.14z M562.7,1457.61c0,0,14.12,20.47,45.89,13.18  c-6.83,8.23-32.95,34.35-32.95,34.35l-12.94-12.94V1457.61z M591.17,1567.73c-21.88-35.3-55.53-16.24-55.53-16.24l44.95-42.35  l10.58,9.41C591.17,1518.55,591.41,1549.61,591.17,1567.73z"/>
<path d="M1892.88,1411.32l10.35,7.06v23.06h-14.35v22.12h14.35v98.12l-20.77,16.83l3.42,4.4l12.18-9.44l25.18,26.56l43.87-37.12  l-2.81-3.58l-9.41,8l-13.76-16.53v-87.53H1963v-21.88h-22.24v-65.47C1940.76,1375.91,1916.29,1388.14,1892.88,1411.32z"/>
<path d="M1848.47,1484.96l13.87-13.23c2.09-2,3.77-4.38,4.92-7.04c3.22-7.44,8.55-23.35,3.56-38.49c0,0-5.41,19.53-20.7,17.65  c-13.65-1.18-20.48-13.65-20.48-13.65s-34.82,29.88-63.05,35.06v46.82l22.35,20.24c0,0-24,12.47-30.35,36  c-2.83,14.35,2.11,29.64,23.29,39.06c-5.41-13.18-2.82-19.06,2.12-22.59c4.94-3.53,12.7-1.41,17.17,3.06s9.18,9.17,9.18,9.17  l63.77-36.94v-54.82L1848.47,1484.96z M1804.94,1458.43c0,0,14.12,20.47,45.88,13.18c-6.82,8.24-32.94,34.35-32.94,34.35  l-12.94-12.94V1458.43z M1833.41,1568.55c-21.88-35.29-55.53-16.23-55.53-16.23l44.94-42.36l10.59,9.42  C1833.41,1519.38,1833.64,1550.43,1833.41,1568.55z"/>
<path d="M787.06,1452.9l-12.18,11.83l-41.12-36.53l-22.23,23.88l-6,0.35l-0.24-104c0,0-41.88,24.95-51.06,36.47l13.41,9.65v160.35  l-17.75,16.72l3.64,4.34l16.35-14.11l39.71,37.88c0,0,30.7-26.83,69-44.12c0-20.65,0-87.88,0-87.88l11.58-11.58L787.06,1452.9z   M738.47,1571.73l-33.18-28.71v-83.53l6.59-3.29l26.59,23.06V1571.73z"/>
<rect x="1967.1" y="1477.38" width="67.83" height="36.71"/>
<path d="M1754,1461.61l-15.06,9.18c0,0,0,0-39.53-37.65c-28.24,22.12-66.35,38.59-66.35,38.59l-0.53,89.35l-13.41,11.65l3.52,3.88  l11.3-9.53c0,0,28.53,26.77,38.65,36.65c7.53-5.88,70.82-40.94,70.82-40.94v-87.06l13.65-9.02L1754,1461.61z M1702.94,1578.02  l-28.94-25.76v-93.53l28.94,27V1578.02z"/>
<polygon points="831.17,1434.91 795.48,1469.01 798.35,1472.14 806.95,1464.77 819.88,1476.73 819.88,1556.79 804.59,1571.14   808.49,1575.18 820.11,1565.14 849.29,1598.44 891.17,1570.44 914.47,1596.2 960.17,1563.73 956.64,1559.14 943.06,1568.85   929.29,1553.85 929.29,1470.79 948.11,1457.38 944.59,1452.67 931.17,1461.61 905.47,1434.91 877.06,1462.08 889.23,1476.02   889.23,1565.32 876.53,1573.26 859.06,1551.73 859.06,1462.26 "/>
<path d="M993.7,1432.44L951,1473.55l3.35,3.18l9.88-9.18l16.06,15.71v74.29l-19.66,18.46l3.6,4.13l10.24-9l30.82,27.29l40.24-33.53  l-3.38-3.75l-10.73,9.51l-12.74-11.88v-89.41c0,0,23.09,24,39.32,6.82c16.24-17.18,17.88-34.35,19.06-39.06  c-5.41,4.94-24.82,15.41-34.47-2.24c-7.06,8.47-24.71,28.24-24.71,28.24L993.7,1432.44z"/>
<path d="M1186.35,1571.96v-98.7l15.18-13.53l-3.3-4.24l-15.29,12.94c0,0-26.35-25.64-40.24-38.82  c-21.17,24.71-65.64,45.18-65.64,45.18v86.82l-13.18,11.77l3.95,4.56l12.05-10.92l38.35,33.65l29.41-22.82  c0,14.11,2.36,14.58,9.18,23.76c6.82,9.18,2.35,21.65-7.06,28.24c-53.17-47.82-85.41,8.23-88.7,21.88  c41.88-20.94,57.41,7.76,57.41,7.76s55.06-39.06,72.7-54.11C1207.41,1590.08,1186.35,1571.96,1186.35,1571.96z M1146,1573.96  l-29.65-21.88v-93.18l29.65,25.77V1573.96z"/>
<path d="M1267.41,1467.02v-113.65c0,0-37.06,23.29-50.47,42.71c10.94,3.18,10.94,3.18,10.94,3.18v162.71l-20.24,16.59l3.29,4  l11.06-8.59l24.71,25.76l44.94-33.65l-3.53-4.47l-9.18,7.06l-11.88-9.88v-84l11.65-8.94l20,20v100.47c0,0,2.59,31.76-32,50.82  c12.35,1.06,71.29-8.82,71.29-58.59c0-49.76,0-104.12,0-104.12l12.94-13.29l-4-3.53l-11.29,11.53l-31.71-35.29  C1303.94,1433.85,1281.17,1457.14,1267.41,1467.02z"/>
<path d="M2660.47,1540.43l-34.24,27.89l-31.41-24.89v-7.41l62.82-49.59l-33.17-53.29l-68.83,43.41v84.12l-9.88,9.88l3.3,3.3  l9.64-8.95l38.94,34.3l66.89-54.35L2660.47,1540.43z M2594.82,1459.26l29.65,45.53l-29.65,22.59V1459.26z"/>
<path d="M2962.59,1540.43l-34.24,27.89l-31.41-24.89v-7.41l62.82-49.59l-33.17-53.29l-68.83,43.41v84.12l-9.88,9.88l3.3,3.3  l9.64-8.95l38.94,34.3l66.89-54.35L2962.59,1540.43z M2896.94,1459.26l29.65,45.53l-29.65,22.59V1459.26z"/>
<path d="M2535.88,1542.08c0,0,0,0-7.29,10.82c-37.88-30.12-68.71-8.94-75.53-3.53c2.59-8.71,13.18-20.94,13.18-20.94  s0.71-0.79,1.93-2.15c18.63,4.01,43.72-8.69,53.6-38.33c-5.71,3.07-13.06,11.07-27.98,10.01c6.55-7.18,12.66-13.82,16.22-17.54  c10.59-11.06,28.47-39.06,28.94-45.65c-37.65,20.24-73.88,2.59-81.65-1.65c-10.12,25.18-29.18,48.24-29.18,48.24l4.47,3.76  l10.82-13.41c36.24,22.59,56.24,6.35,61.18,2.59c-1.88,6.12-11.29,14.82-11.29,14.82s-3.01,3.11-7.5,7.87  c-16.4-1.68-36.18,1.27-49.91,32.36c0,0,9-8.01,24.85-4.97c-4.64,5.31-8.81,10.3-11.67,14.15c-11.53,15.53-14.82,43.76-15.06,54.59  c40.24-37.88,69.41-4,75.29,3.53c1.65-6.12,30.82-51.29,30.82-51.29L2535.88,1542.08z"/>
<path d="M2417.29,1555.26l-9.65,10.35l-16.7-15.06v-92.23l10.35-10.12l-3.29-3.53l-10.59,10.47l-23.77-25.06c0,0,0,0-4.7,0.24  c-16.24,21.17-32,7.53-40.94,0c-3.3,24-36,49.88-36,49.88c23.53-1.18,43.29,18.35,43.29,18.35s-9.17,5.88-23.53,16.35  c-14.59,10.95-26.12,34.48-14.35,59.18c14.82,27.06,40.23,21.18,40.23,21.18l20.71-25.41h8.24l28.7,29.41l36-39.53L2417.29,1555.26z   M2304.82,1479.02c0,0,19.45-7.6,28.71-22.59c7.53,7.3,19.53,27.06,19.53,27.06v43.06  C2353.06,1526.55,2337.53,1491.49,2304.82,1479.02z M2338,1562.79c-11.53-6.59-20.24-17.41-22.83-31.53  c-2.58-14.12,8.71-26.12,13.77-28c0,0,20.12,23.76,24.12,46.59C2355.17,1565.14,2349.53,1569.38,2338,1562.79z"/>
<path d="M225.88,1362.55l-14.82,9.53l-39.18-34.94l-29.29,26.04v-29.27h-6.35v34.92l-15.17,13.49c0-31.77-17.3-49.42-41.3-48.36  c-24,1.06-36.7,20.83-36,34.47c17.65-23.41,28.59,0,28.59,0l0.35,60.83c0,0-26.29,0.7-34.58,18.7c-10.24,26.12,8.11,41.65,18,41.18  c-18.36-21.29,16.58-22.12,16.58-22.12v61.77c0,0-28.23,8.47-36.7,26.82c-9.53,22.59,8.82,46.59,21.17,50.12  c-19.05-22.24,15.18-36,15.18-36s0,77.29,0,96.35c5.29-6.35,54.35-40.23,64.09-46.94c-13.56,0-16.44-10.59-16.44-10.59s0-16.23,0-30  c9.88-0.7,20.12,10.59,20.12,10.59l73.41-51.18v-159.53l15.61-10.28L225.88,1362.55z M142.59,1443.01  c3.11,2.43,7.17,4.62,12.13,5.18c0.81,0.09,1.63,0.14,2.44,0.14c5.17,0,10.4-1.84,15.66-5.46V1465c-5.26-3.62-10.49-5.46-15.66-5.46  c-0.82,0-1.63,0.05-2.44,0.14c-4.96,0.56-9.03,2.75-12.13,5.18V1443.01z M147.88,1366.55l24.94,24.47v44.28  c-6.06,5.2-11.89,7.54-17.39,6.93c-6-0.66-10.44-4.71-12.85-7.5v-63.58L147.88,1366.55z M121.06,1389.85l15.17-13.18v160.44  c-5.15-2.89-10.37-5.29-15.17-6.56C121.06,1508.2,121.06,1389.85,121.06,1389.85z M167.17,1559.49c0,0-11.3-10.1-24.58-18.57v-67.79  c2.4-2.79,6.85-6.85,12.85-7.5c5.5-0.61,11.33,1.73,17.39,6.93v86.92H167.17z"/>
<path d="M1622.75,1362.55l-14.82,9.53l-39.18-34.94l-29.29,26.04v-29.27h-6.35v34.92l-15.17,13.49c0-31.77-17.3-49.42-41.3-48.36  c-24,1.06-36.7,20.83-36,34.47c17.65-23.41,28.59,0,28.59,0l0.35,60.83c0,0-26.29,0.7-34.58,18.7c-10.24,26.12,8.11,41.65,18,41.18  c-18.36-21.29,16.58-22.12,16.58-22.12v61.77c0,0-28.23,8.47-36.7,26.82c-9.53,22.59,8.82,46.59,21.17,50.12  c-19.05-22.24,15.18-36,15.18-36s0,77.29,0,96.35c5.29-6.35,54.35-40.23,64.09-46.94c-13.56,0-16.44-10.59-16.44-10.59s0-16.23,0-30  c9.88-0.7,20.12,10.59,20.12,10.59l73.41-51.18v-159.53l15.61-10.28L1622.75,1362.55z M1539.46,1443.01  c3.11,2.43,7.17,4.62,12.13,5.18c0.81,0.09,1.63,0.14,2.44,0.14c5.17,0,10.4-1.84,15.66-5.46V1465c-5.26-3.62-10.49-5.46-15.66-5.46  c-0.82,0-1.63,0.05-2.44,0.14c-4.96,0.56-9.03,2.75-12.13,5.18V1443.01z M1544.75,1366.55l24.94,24.47v44.28  c-6.06,5.2-11.89,7.54-17.39,6.93c-6-0.66-10.44-4.71-12.85-7.5v-63.58L1544.75,1366.55z M1517.93,1389.85l15.17-13.18v160.44  c-5.15-2.89-10.37-5.29-15.17-6.56C1517.93,1508.2,1517.93,1389.85,1517.93,1389.85z M1564.04,1559.49c0,0-11.3-10.1-24.58-18.57  v-67.79c2.4-2.79,6.85-6.85,12.85-7.5c5.5-0.61,11.33,1.73,17.39,6.93v86.92H1564.04z"/>
<path d="M2272.23,1449.38l-13.06,9.71l-31.76-31.24l-45.06,37.29v-77.5c15.18,6.74,34.06,7.9,48.59-2.26  c23.76-17.41,19.29-38.82,17.41-48c-18.35,40.94-49.41,15.76-57.41,7.76c-35.29,33.18-73.65,49.41-73.65,49.41s0,119.53,0,132  c-3.29-3.06-24.47-33.65-22.82-78.35c1.18-44.71,28.47-66.12,35.06-74.35c-27.53,13.41-55.53,38.82-67.76,67.76  s-9.41,71.06,7.29,102.12c16.71,31.06,47.06,51.53,80.24,55.53c33.18,4,58.59-11.06,70.82-22.05  c11.53-12.17,44.71-31.83,44.71-31.83v-83.65l10.59-8.12L2272.23,1449.38z M2182.35,1508.88c4.92,3.23,11.92,6.53,20.02,6.53  c0.06,0,0.12,0,0.18,0c6.14-0.04,11.98-1.96,17.45-5.72c0,6.84,0,14.4,0,22.01c-5.47-3.75-11.31-5.68-17.45-5.72  c-0.06,0-0.12,0-0.18,0c-8.1,0-15.1,3.3-20.02,6.53V1508.88z M2197.53,1460.08l22.46,22.12c0,0,0,7.55,0,18.54  c-5.47,5.04-11.32,7.62-17.44,7.67c-0.06,0-0.12,0-0.18,0c-8.83,0-16.35-5.19-20.02-8.25v-26.61L2197.53,1460.08z M2120.47,1531.97  l42.71-28.7v-129.41c2.57,3,5.72,5.78,9.29,8.26v192.32C2141.37,1564.57,2120.47,1531.97,2120.47,1531.97z M2182.35,1576.67v-35.44  c3.67-3.06,11.19-8.25,20.02-8.25c0.06,0,0.12,0,0.18,0c6.12,0.05,11.97,2.63,17.44,7.67c0,10.34,0,20.26,0,28.02  C2206.64,1576.42,2193.94,1578.28,2182.35,1576.67z"/>
</svg>