<svg xmlns="http://www.w3.org/2000/svg" xmlns:xlink="http://www.w3.org/1999/xlink" width="340" height="54" viewBox="0 0 255 40.5" xmlns:v="https://vecta.io/nano"><style><![CDATA[.B{overflow:visible}.C{stroke:none}]]></style><defs><symbol id="A" class="B"><path d="M2.625-23.844h11.578c1.988 0 3.535.559 4.641 1.672s1.656 2.594 1.656 4.438c0 .918-.121 1.695-.359 2.328s-.562 1.164-.969 1.578a3.73 3.73 0 0 1-1.406.906c-.531.188-1.105.293-1.719.313v.203c.57 0 1.172.105 1.797.313s1.195.539 1.719.984c.531.438.973 1.012 1.328 1.719s.531 1.574.531 2.594c0 .938-.156 1.824-.469 2.656-.305.824-.73 1.543-1.281 2.156a5.85 5.85 0 0 1-1.953 1.453c-.75.355-1.57.531-2.453.531H2.625zM7.828-4.375h5.969c.688 0 1.227-.187 1.625-.562s.594-.906.594-1.594v-1.156c0-.676-.199-1.203-.594-1.578-.398-.383-.937-.578-1.625-.578H7.828zm0-9.703h5.156c.676 0 1.207-.191 1.594-.578.395-.383.594-.922.594-1.609v-1.016c0-.687-.199-1.223-.594-1.609-.387-.383-.918-.578-1.594-.578H7.828zm0 0" class="C"/></symbol><symbol id="B" class="B"><path d="M7.828 0H2.625v-23.844h11.313c1.094 0 2.082.184 2.969.547a6.38 6.38 0 0 1 2.266 1.563c.633.668 1.117 1.469 1.453 2.406.344.93.516 1.965.516 3.109 0 1.617-.359 3.027-1.078 4.234s-1.805 2.086-3.25 2.625L21.484 0h-5.766l-4.172-8.75H7.828zm5.453-13.109c.781 0 1.391-.195 1.828-.594.445-.406.672-.992.672-1.766v-1.5c0-.781-.227-1.367-.672-1.766-.437-.395-1.047-.594-1.828-.594H7.828v6.219zm0 0" class="C"/></symbol><symbol id="C" class="B"><path d="M17.313 0l-1.703-5.672H7.656L5.938 0H.688l7.859-23.844h6.406L22.719 0zm-5.625-19.125h-.172l-2.641 9.047h5.469zm0 0" class="C"/></symbol><symbol id="D" class="B"><path d="M9.906-11.266l-2.297-4.781h-.094V0H2.625v-23.844h5.672l6.531 11.281 2.281 4.781h.109v-16.062h4.875V0h-5.672zm0 0" class="C"/></symbol><symbol id="E" class="B"><path d="M2.625-23.844h8.984c1.57 0 3.004.25 4.297.75 1.301.5 2.406 1.25 3.313 2.25.914.992 1.625 2.23 2.125 3.719s.75 3.227.75 5.203-.25 3.719-.75 5.219c-.5 1.492-1.211 2.73-2.125 3.719-.906.992-2.012 1.734-3.312 2.234-1.293.5-2.727.75-4.297.75H2.625zm8.984 19.234c1.551 0 2.77-.43 3.656-1.297s1.328-2.254 1.328-4.172v-3.687c0-1.914-.445-3.305-1.328-4.172s-2.105-1.297-3.656-1.297H7.828v14.625zm0 0" class="C"/></symbol><symbol id="F" class="B"><path d="M2.625 0v-23.844h11.281c1.113 0 2.113.188 3 .563a6.64 6.64 0 0 1 2.266 1.563c.633.656 1.117 1.461 1.453 2.406.344.949.516 1.98.516 3.094 0 1.137-.172 2.172-.516 3.109-.336.93-.82 1.727-1.453 2.391-.625.656-1.383 1.172-2.266 1.547s-1.887.563-3 .563H7.828V0zm5.203-13.109h5.453c.781 0 1.391-.195 1.828-.594.445-.406.672-.992.672-1.766v-1.5c0-.781-.227-1.367-.672-1.766-.437-.395-1.047-.594-1.828-.594H7.828zm0 0" class="C"/></symbol><symbol id="G" class="B"><path d="M7.547-23.844v14.625c0 1.688.328 2.949.984 3.781.664.824 1.773 1.234 3.328 1.234 1.539 0 2.641-.41 3.297-1.234.664-.832 1-2.094 1-3.781v-14.625h5.063v14.078c0 1.75-.168 3.273-.5 4.563-.336 1.281-.875 2.34-1.625 3.172S17.375-.582 16.188-.187s-2.633.594-4.328.594c-1.711 0-3.156-.199-4.344-.594S5.359-1.195 4.609-2.031 3.316-3.922 2.984-5.203C2.66-6.492 2.5-8.016 2.5-9.766v-14.078zm0 0" class="C"/></symbol><symbol id="H" class="B"><path d="M10.344.406C8.25.406 6.473.051 5.016-.656c-1.461-.719-2.699-1.648-3.719-2.797l3.422-3.453c1.613 1.824 3.602 2.734 5.969 2.734 1.281 0 2.227-.258 2.844-.781s.922-1.211.922-2.078c0-.664-.184-1.219-.547-1.656-.367-.445-1.105-.75-2.219-.906l-2.359-.312c-2.531-.32-4.387-1.082-5.562-2.281-1.168-1.207-1.75-2.816-1.75-4.828 0-1.062.203-2.035.609-2.922.414-.895 1.004-1.66 1.766-2.297s1.691-1.129 2.797-1.484 2.363-.531 3.781-.531c1.789 0 3.367.289 4.734.859 1.375.563 2.551 1.391 3.531 2.484l-3.453 3.484a6.95 6.95 0 0 0-2.078-1.609c-.805-.426-1.82-.641-3.047-.641-1.156 0-2.023.211-2.594.625-.574.406-.859.977-.859 1.703 0 .813.223 1.402.672 1.766s1.172.625 2.172.781l2.359.391c2.457.387 4.273 1.141 5.453 2.266 1.188 1.125 1.781 2.727 1.781 4.797 0 1.137-.211 2.184-.625 3.141-.406.961-1.008 1.781-1.797 2.469-.781.68-1.758 1.203-2.922 1.578-1.156.375-2.477.563-3.953.563zm0 0" class="C"/></symbol><symbol id="I" class="B"><path d="M16.906-9.766H7.828V0H2.625v-23.844h5.203v9.5h9.078v-9.5h5.188V0h-5.187zm0 0" class="C"/></symbol><clipPath id="J"><path d="M1.555 2.133H34.59v33.035H1.555zm0 0"/></clipPath><clipPath id="K"><path d="M34.59 18.648a16.03 16.03 0 0 1-.082 1.621 15.83 15.83 0 0 1-.238 1.602l-.391 1.574-.547 1.523-.695 1.469c-.254.477-.531.938-.832 1.387a15.84 15.84 0 0 1-.965 1.305l-1.09 1.199-1.199 1.09a15.84 15.84 0 0 1-1.305.965l-1.391.832a15.68 15.68 0 0 1-1.465.695l-1.523.547-1.574.391-1.602.238a16.03 16.03 0 0 1-1.621.082c-.539 0-1.078-.027-1.617-.082s-1.074-.133-1.605-.238l-1.57-.391-1.527-.547a15.68 15.68 0 0 1-1.465-.695 16.14 16.14 0 0 1-1.391-.832l-1.301-.965-1.203-1.09-1.086-1.199a15.84 15.84 0 0 1-.965-1.305l-.836-1.387-.691-1.469c-.207-.496-.391-1.008-.547-1.523l-.395-1.574-.238-1.602-.078-1.621.078-1.617.238-1.602a16.86 16.86 0 0 1 .395-1.574 16.14 16.14 0 0 1 .547-1.527l.691-1.465.836-1.391.965-1.301 1.086-1.199 1.203-1.09 1.301-.965 1.391-.836 1.465-.691 1.527-.547 1.57-.395 1.605-.238 1.617-.078 1.621.078 1.602.238 1.574.395c.516.156 1.023.34 1.523.547l1.465.691 1.391.836a15.84 15.84 0 0 1 1.305.965c.418.344.816.707 1.199 1.09s.746.781 1.09 1.199.664.852.965 1.301a16.14 16.14 0 0 1 .832 1.391 15.68 15.68 0 0 1 .695 1.465l.547 1.527.391 1.57.238 1.605a16.01 16.01 0 0 1 .082 1.617zm0 0"/></clipPath><clipPath id="L"><path d="M10.551 1.453h16.18v37.078h-16.18zm0 0"/></clipPath></defs><g clip-path="url(#J)"><g clip-path="url(#K)"><path d="M1.555 2.133v33.035H34.59V2.133zm0 0" fill="rgb(54.899597%,32.199097%,100%)"/></g></g><g clip-path="url(#L)"><path d="M12.09 38.445c-.109 0-.215-.023-.32-.074-.328-.16-.492-.547-.375-.898L16.93 20.73h-5.57a.72.72 0 0 1-.609-.328c-.137-.203-.164-.465-.066-.691l7.32-17.715a.73.73 0 0 1 .676-.457h6.953c.25 0 .48.129.613.34a.74.74 0 0 1 .055.703l-5.762 12.984H26c.27 0 .516.148.645.387s.113.527-.031.754l-13.91 21.406c-.141.215-.375.332-.613.332zm0 0" fill="rgb(100%,100%,100%)"/></g><g fill="rgb(0%,0%,0%)"><use xlink:href="#A" x="45.392" y="32.475"/><use xlink:href="#B" x="68.17" y="32.475"/><use xlink:href="#C" x="91.187" y="32.475"/><use xlink:href="#D" x="114.58" y="32.475"/><use xlink:href="#E" x="139.304" y="32.475"/></g><g fill="rgb(54.899597%,32.159424%,100%)"><use xlink:href="#F" x="163.105" y="32.475"/><use xlink:href="#G" x="185.507" y="32.475"/><use xlink:href="#H" x="209.207" y="32.475"/><use xlink:href="#I" x="230.517" y="32.475"/></g></svg>