<?xml version="1.0" encoding="UTF-8"?>
<svg width="196px" height="80px" viewBox="0 0 196 80" version="1.1" xmlns="http://www.w3.org/2000/svg" xmlns:xlink="http://www.w3.org/1999/xlink">
    <title>Untitled 10</title>
    <g id="Page-1" stroke="none" stroke-width="1" fill="none" fill-rule="evenodd">
        <path d="M195.969072,67.0491061 C195.753771,65.9757521 194.648462,65.1979629 193.595053,65.0499313 C192.664319,64.9185968 191.736067,64.7735557 190.809803,64.6202906 C190.230453,63.1965452 188.132575,62.6629833 186.778937,63.0088889 C186.156875,63.1678858 185.534813,63.3263844 184.912998,63.4853813 C176.793904,61.70003 168.900043,59.0364572 161.390595,55.5213286 C155.282711,52.2870615 149.327301,48.7624629 143.525358,44.9856623 C142.179419,44.1091853 140.225075,44.0012767 138.892794,44.9856623 C137.692374,45.8723569 137.643454,47.4683075 138.892794,48.3472765 C143.138215,51.3353227 147.569385,54.0609491 152.150298,56.5044681 C156.066684,58.7052551 160.057568,60.7724647 164.108051,62.7145701 C143.580239,61.7570994 123.170382,58.4719931 103.327459,53.1097087 C79.5902516,46.6955025 56.622365,37.1534425 35.2842572,24.9036992 C29.2694969,21.4508735 23.3920621,17.7647859 17.6271201,13.9079883 C12.0975933,10.2084433 6.5722881,6.06754458 2.79968421,0.483711174 C2.16719198,-0.452078099 -0.56466791,0.0490862757 0.10482525,1.30835211 C2.9906487,6.73667753 7.38084512,10.7621913 12.2488252,14.392954 C17.2762322,18.143089 22.5489874,21.5782206 27.8796032,24.8755383 C38.5664126,31.485874 49.6796017,37.3877013 61.149142,42.5094966 C84.2302664,52.8173836 108.689613,60.1222718 133.640401,64.1054196 C145.357525,65.9762505 157.182175,67.1101629 169.035879,67.5405512 C159.032469,70.0947202 149.029059,72.6483906 139.026394,75.2048025 C137.802632,75.5173137 136.322844,76.3863143 136.621831,77.8773468 C136.898469,79.2567326 138.593061,80.104301 139.918886,79.9896637 C158.426051,78.3892273 176.621067,74.8917928 194.386724,69.4452749 C195.354708,69.1487132 196.170963,68.0564191 195.969072,67.0491061" id="Fill-1" fill="#000000" transform="translate(98.000000, 40.000000) scale(-1, 1) translate(-98.000000, -40.000000) "></path>
    </g>
</svg>