<?xml version="1.0" encoding="UTF-8"?>
<svg width="196px" height="80px" viewBox="0 0 196 80" version="1.1" xmlns="http://www.w3.org/2000/svg" xmlns:xlink="http://www.w3.org/1999/xlink">
    <title>Untitled 10</title>
    <defs>
        <polygon id="path-1" points="0 0 196 0 196 79.8518519 0 79.8518519"></polygon>
    </defs>
    <g id="Page-1" stroke="none" stroke-width="1" fill="none" fill-rule="evenodd">
        <g id="Group-3">
            <mask id="mask-2" fill="white">
                <use xlink:href="#path-1"></use>
            </mask>
            <g id="Clip-2"></g>
            <path d="M195.969072,66.9249411 C195.753771,65.8535748 194.648462,65.077226 193.595053,64.9294684 C192.664319,64.7983772 191.736067,64.6536047 190.809803,64.5006234 C190.230453,63.0795145 188.132575,62.5469407 186.778937,62.8922058 C186.156875,63.0509083 185.534813,63.2091133 184.912998,63.3678158 C176.793904,61.5857707 168.900043,58.9271304 161.390595,55.4185114 C155.282711,52.1902336 149.327301,48.672162 143.525358,44.9023555 C142.179419,44.0275016 140.225075,43.9197929 138.892794,44.9023555 C137.692374,45.787408 137.643454,47.3804032 138.892794,48.2577445 C143.138215,51.2402573 147.569385,53.9608362 152.150298,56.3998302 C156.066684,58.5965416 160.057568,60.6599231 164.108051,62.598432 C143.580239,61.6427344 123.170382,58.3637116 103.327459,53.0113574 C79.5902516,46.6090294 56.622365,37.0846398 35.2842572,24.8575813 C29.2694969,21.4111497 23.3920621,17.7318881 17.6271201,13.8822328 C12.0975933,10.1895387 6.5722881,6.05630839 2.79968421,0.482815412 C2.16719198,-0.451240918 -0.56466791,0.0489953752 0.10482525,1.30592923 C2.9906487,6.7242022 7.38084512,10.7422613 12.2488252,14.3663004 C17.2762322,18.1094907 22.5489874,21.538261 27.8796032,24.8294725 C38.5664126,31.4275668 49.6796017,37.3184648 61.149142,42.4307753 C84.2302664,52.7195736 108.689613,60.0109343 133.640401,63.9867059 C145.357525,65.8540723 157.182175,66.9858849 169.035879,67.4154762 C159.032469,69.9649151 149.029059,72.5138566 139.026394,75.0655343 C137.802632,75.3774668 136.322844,76.2448582 136.621831,77.7331295 C136.898469,79.1099609 138.593061,79.9559597 139.918886,79.8415347 C158.426051,78.2440621 176.621067,74.7531043 194.386724,69.3166726 C195.354708,69.02066 196.170963,67.9303887 195.969072,66.9249411" id="Fill-1" fill="#000000" mask="url(#mask-2)"></path>
        </g>
    </g>
</svg>